# xmcd CD database generated by RipIT
#
# Track frame offsets:
# 150
# 24668
# 40458
# 67373
# 83545
# 105443
# 130413
# 144993
# 160880
# 171056
# 188582
# 209387
#
# Disc length: 3198 seconds
#
# Revision: 0
# Processed by: cddbd v1.5.2PL0 Copyright (c) Steve Scherf et al.
# Submitted via: RipIT 3.9.0 www.suwald.com/ripit/ripit.html on 2014-09-11 at 17:20
#
DISCID=a30c7c0c
DTITLE=Achim Reichel - Blues in blond
DYEAR=1981
DGENRE=rock
TTITLE0=Der Spieler
TTITLE1=Ich hab von Dir getr‰umt
TTITLE2=Mama Stadt
TTITLE3=Eckenliegerblues
TTITLE4=Der Schatten an der Wand
TTITLE5=In einer fremden Stadt
TTITLE6=Kettchen am Fuﬂ
TTITLE7=Komm in die Falle, Marie
TTITLE8=Apokalypso Ball
TTITLE9=Die st‰rkste Sonne sieht man nicht
TTITLE10=Blues in blond
TTITLE11=Der Spieler (bonus live)
EXTD=
EXTT0=
EXTT1=
EXTT2=
EXTT3=
EXTT4=
EXTT5=
EXTT6=
EXTT7=
EXTT8=
EXTT9=
EXTT10=
EXTT11=
PLAYORDER=
